<svg width="141" height="373" viewBox="0 95 141 373" fill="none" xmlns="http://www.w3.org/2000/svg">
<g opacity="0.32">
<path d="M77.3675 158.759L69.5299 169.056C-49.2138 51.1468 -219.115 5.63644 -253.734 49.7284C-289.692 95.525 -243.542 168.774 -112.493 273.479L-97.7532 285.258C-71.1577 306.715 -70.1123 307.536 -40.0306 330.538L-47.8938 340.815C-78.0774 317.733 -79.1228 316.912 -105.98 295.578L-120.695 283.819C-189.968 228.524 -235.264 182.431 -259.165 142.895C-283.478 102.625 -285.145 68.5785 -264.09 41.762C-244.113 16.3194 -199.721 13.3784 -138.869 33.1496C-80.2096 52.1446 22.7806 89.5369 77.3675 158.759Z" fill="#0047AB"/>
<path d="M67.1665 216.919C72.8129 221.36 79.6472 224.03 86.8044 224.592C93.9616 225.153 101.12 223.58 107.374 220.072C113.627 216.563 118.695 211.277 121.936 204.883C125.177 198.488 126.445 191.273 125.58 184.149C124.715 177.025 121.755 170.313 117.076 164.863C112.396 159.413 106.207 155.469 99.292 153.531C92.3767 151.593 85.0461 151.748 78.2276 153.975C71.4091 156.203 65.4094 160.404 60.9876 166.046C55.059 173.596 52.3794 183.198 53.5381 192.739C54.6969 202.279 59.5991 210.977 67.1665 216.919ZM100.694 172.957C103.659 175.292 105.866 178.452 107.037 182.037C108.209 185.621 108.292 189.47 107.276 193.098C106.261 196.725 104.192 199.968 101.331 202.417C98.4701 204.865 94.9456 206.411 91.2024 206.857C87.4593 207.303 83.6654 206.631 80.2998 204.924C76.9342 203.218 74.148 200.554 72.2928 197.269C70.4377 193.984 69.5969 190.225 69.8765 186.468C70.1562 182.71 71.5439 179.122 73.8643 176.156C75.4068 174.177 77.3263 172.524 79.5123 171.292C81.6983 170.059 84.1075 169.272 86.6013 168.974C89.0951 168.677 91.6242 168.876 94.0429 169.559C96.4616 170.243 98.7222 171.397 100.694 172.957Z" fill="#0047AB"/>
</g>
</svg>
