<svg width="108" height="40" viewBox="0 0 108 40" fill="none" xmlns="http://www.w3.org/2000/svg">
<g clip-path="url(#clip0_548_5421)">
<path d="M51.0231 36.623L50.9909 34.4791C78.5306 37.695 105.329 26.2411 105.329 16.9526C105.329 7.30503 91.8197 2.48123 64.0275 2.2454L60.9013 2.2186C55.2398 2.14356 55.0195 2.14356 48.7456 2.22396L48.7188 0.080048C55.0142 -0.000348688 55.2344 -0.00034869 60.9174 0.03181L64.0383 0.0586088C78.724 0.176524 89.3435 1.54863 96.5037 4.25531C103.793 7.0156 107.494 11.282 107.494 16.9312C107.494 22.291 102.009 27.2166 92.0561 30.8666C82.4679 34.3933 65.22 40.0586 51.0231 36.623Z" fill="#0047AB"/>
<path d="M10.9375 7.61035H13.9079V12.0643C14.2573 11.608 14.7114 11.2422 15.2321 10.9978C15.7529 10.7534 16.3249 10.6376 16.8999 10.6601C19.1076 10.6601 20.5847 12.1876 20.5847 14.7871V20.4417H17.6304V15.1891C17.6304 13.8706 16.8999 13.1416 15.7719 13.1416C14.6438 13.1416 13.9079 13.8706 13.9079 15.1891V20.4417H10.9375V7.61035Z" fill="#0047AB"/>
<path d="M26.9667 20.581C24.1144 20.581 22.0625 18.673 22.0625 15.6072C22.0625 12.5414 24.0822 10.6279 26.9667 10.6279C29.8512 10.6279 31.801 12.4985 31.801 15.4517C31.7987 15.7419 31.7808 16.0317 31.7473 16.32H25.0168C25.1243 17.5849 25.9031 18.1799 26.8593 18.1799C27.1824 18.2006 27.5041 18.1218 27.7808 17.954C28.0575 17.7862 28.2759 17.5376 28.4063 17.2419H31.5701C31.1027 19.1232 29.3839 20.581 26.9667 20.581ZM25.0383 14.6853H28.7554C28.7556 14.4529 28.7072 14.223 28.6135 14.0104C28.5197 13.7977 28.3825 13.6068 28.2106 13.45C28.0388 13.2931 27.8361 13.1738 27.6154 13.0995C27.3948 13.0251 27.161 12.9975 26.9291 13.0184C26.4628 13.0025 26.0078 13.1643 25.6567 13.4709C25.3055 13.7775 25.0844 14.2059 25.0383 14.6692V14.6853Z" fill="#0047AB"/>
<path d="M40.8204 10.6459H36.3298V13.1114H40.3101V15.4H36.3298V18.0799H40.8204V20.4543H33.3594V8.27148H40.8204V10.6459Z" fill="#0047AB"/>
<path d="M49.4585 15.1895C49.4585 13.871 48.728 13.142 47.6 13.142C46.472 13.142 45.7361 13.871 45.7361 15.1895V20.442H42.7656V10.7945H45.7361V12.0754C46.0805 11.6283 46.5266 11.2693 47.0375 11.0279C47.5483 10.7865 48.1093 10.6698 48.6743 10.6873C50.9196 10.6873 52.4343 12.2148 52.4343 14.8143V20.442H49.48L49.4585 15.1895Z" fill="#0047AB"/>
<path d="M58.1795 10.6277C58.7658 10.5968 59.3499 10.7195 59.8739 10.9838C60.3979 11.248 60.8434 11.6445 61.1661 12.1338V10.7671H64.1419V20.4147C64.1419 22.9981 62.6433 25.201 59.3075 25.201C56.423 25.201 54.543 23.7485 54.2852 21.4491H57.218C57.4114 22.178 58.1419 22.6443 59.1679 22.6443C60.2959 22.6443 61.1822 22.0548 61.1822 20.4254V19.0587C60.8568 19.5465 60.4113 19.9426 59.8883 20.2092C59.3653 20.4757 58.7824 20.6037 58.1956 20.5808C55.8107 20.5808 53.8984 18.6406 53.8984 15.5855C53.8984 12.5305 55.7946 10.6277 58.1795 10.6277ZM59.0443 13.2111C57.9324 13.2111 56.928 14.0419 56.928 15.5855C56.928 17.1291 57.9324 17.9974 59.0443 17.9974C60.1562 17.9974 61.1929 17.1506 61.1929 15.607C61.1929 14.0633 60.167 13.2111 59.0443 13.2111Z" fill="#0047AB"/>
<path d="M66.2891 7.61035H69.2917V20.4417H66.3159L66.2891 7.61035Z" fill="#0047AB"/>
<path d="M71.1402 8.1629C71.1077 7.80801 71.1834 7.45161 71.3574 7.1404C71.5314 6.82919 71.7956 6.57768 72.1153 6.41883C72.435 6.25998 72.7953 6.2012 73.1491 6.25019C73.5028 6.29918 73.8335 6.45366 74.0978 6.69337C74.3621 6.93309 74.5476 7.24688 74.6301 7.59361C74.7126 7.94034 74.6882 8.30385 74.5601 8.63651C74.432 8.96916 74.2062 9.25545 73.9122 9.45786C73.6183 9.66027 73.2699 9.76936 72.9128 9.77084C72.6892 9.78764 72.4645 9.75878 72.2525 9.686C72.0404 9.61322 71.8455 9.49807 71.6796 9.34757C71.5137 9.19707 71.3803 9.0144 71.2875 8.81071C71.1948 8.60701 71.1446 8.38659 71.1402 8.1629ZM71.4195 10.7678H74.3899V20.4421H71.441L71.4195 10.7678Z" fill="#0047AB"/>
<path d="M80.4925 20.581C77.8981 20.581 76.1631 19.1446 76.0234 17.2687H78.9563C79.0133 17.6119 79.1997 17.9203 79.4774 18.1306C79.7551 18.3409 80.103 18.4372 80.4496 18.3996C81.2123 18.3996 81.6152 18.0512 81.6152 17.6171C81.6152 16.0574 76.3296 17.1829 76.3296 13.6294C76.3296 11.9786 77.737 10.6279 80.2777 10.6279C82.8184 10.6279 84.172 12.0161 84.36 13.9242H81.642C81.5915 13.5957 81.4144 13.2999 81.1486 13.0997C80.8827 12.8995 80.5491 12.8107 80.2186 12.8522C79.5203 12.8522 79.1443 13.1309 79.1443 13.5972C79.1443 15.1409 84.3923 14.0475 84.446 17.6546C84.4191 19.2947 82.9258 20.581 80.4925 20.581Z" fill="#0047AB"/>
<path d="M86.2583 7.61035H89.2288V12.0643C89.5781 11.608 90.0322 11.2422 90.553 10.9978C91.0737 10.7534 91.6457 10.6376 92.2207 10.6601C94.4284 10.6601 95.9055 12.1876 95.9055 14.7871V20.4417H92.9351V15.1891C92.9351 13.8706 92.2046 13.1416 91.0765 13.1416C89.9485 13.1416 89.2126 13.8706 89.2126 15.1891V20.4417H86.2422L86.2583 7.61035Z" fill="#0047AB"/>
<path d="M6.29051 26.7979C9.1965 26.7979 11.3881 28.4058 12.081 31.0857H8.81512C8.59985 30.5926 8.24088 30.1756 7.78488 29.8888C7.32888 29.602 6.79696 29.4588 6.25828 29.4777C4.43197 29.4777 3.18041 30.8284 3.18041 32.9777C3.18041 35.1269 4.43197 36.483 6.25828 36.483C6.79155 36.5059 7.31958 36.3698 7.77498 36.092C8.23039 35.8142 8.5925 35.4073 8.81512 34.9233H12.081C11.3881 37.5603 9.1965 39.1736 6.29051 39.1736C2.68623 39.195 0.15625 36.6438 0.15625 32.9991C0.15625 29.3545 2.68623 26.7979 6.29051 26.7979Z" fill="#0047AB"/>
<path d="M13.9062 26.2627H16.8821V39.1262H13.9062V26.2627Z" fill="#0047AB"/>
<path d="M18.7578 26.8255C18.7623 26.6018 18.8124 26.3814 18.9052 26.1777C18.9979 25.974 19.1314 25.7913 19.2973 25.6408C19.4632 25.4903 19.6581 25.3752 19.8701 25.3024C20.0822 25.2296 20.3068 25.2007 20.5304 25.2175C20.742 25.2175 20.9516 25.2591 21.1471 25.3399C21.3426 25.4207 21.5202 25.5392 21.6699 25.6885C21.8195 25.8378 21.9382 26.0151 22.0192 26.2101C22.1002 26.4052 22.1419 26.6143 22.1419 26.8255C22.1419 27.0366 22.1002 27.2457 22.0192 27.4408C21.9382 27.6359 21.8195 27.8131 21.6699 27.9625C21.5202 28.1118 21.3426 28.2302 21.1471 28.311C20.9516 28.3918 20.742 28.4334 20.5304 28.4334C20.3067 28.451 20.0817 28.4227 19.8693 28.3502C19.6569 28.2777 19.4617 28.1626 19.2956 28.012C19.1295 27.8613 18.9961 27.6783 18.9036 27.4743C18.8111 27.2702 18.7615 27.0494 18.7578 26.8255ZM19.0371 29.4303H22.0237V39.1262H19.0371V29.4303Z" fill="#0047AB"/>
<path d="M30.8594 33.8532C30.8594 32.5346 30.1289 31.8057 28.9955 31.8057C27.8621 31.8057 27.1369 32.5346 27.1369 33.8532V39.1272H24.1719V29.4796H27.1423V30.7123C27.4862 30.2645 27.9321 29.905 28.4431 29.6636C28.9541 29.4222 29.5155 29.3058 30.0805 29.3241C32.3258 29.3241 33.8406 30.8517 33.8406 33.4512V39.1272H30.8863L30.8594 33.8532Z" fill="#0047AB"/>
<path d="M35.6011 26.825C35.5686 26.4701 35.6444 26.1137 35.8184 25.8025C35.9924 25.4913 36.2565 25.2398 36.5762 25.0809C36.8959 24.9221 37.2563 24.8633 37.61 24.9123C37.9638 24.9613 38.2945 25.1158 38.5587 25.3555C38.823 25.5952 39.0085 25.909 39.091 26.2557C39.1735 26.6024 39.1491 26.966 39.021 27.2986C38.8929 27.6313 38.6671 27.9176 38.3731 28.12C38.0792 28.3224 37.7308 28.4315 37.3737 28.4329C37.1499 28.4505 36.9249 28.4222 36.7126 28.3497C36.5002 28.2773 36.305 28.1621 36.1389 28.0115C35.9728 27.8608 35.8394 27.6779 35.7469 27.4738C35.6544 27.2697 35.6048 27.0489 35.6011 26.825ZM35.875 29.4299H38.8508V39.1257H35.875V29.4299Z" fill="#0047AB"/>
<path d="M6.20482 9.23438H3.23438V20.447H6.20482V9.23438Z" fill="#0047AB"/>
<path d="M28.1628 3.60645H0V5.98083H28.1628V3.60645Z" fill="#0047AB"/>
<path d="M46.4043 27.999C45.2139 27.998 44.0501 28.3493 43.0599 29.0085C42.0697 29.6677 41.2978 30.6052 40.8418 31.7023C40.3858 32.7994 40.2662 34.0068 40.4982 35.1718C40.7301 36.3367 41.3032 37.4068 42.1449 38.2467C42.9866 39.0865 44.059 39.6584 45.2265 39.8898C46.394 40.1213 47.6041 40.002 48.7036 39.5469C49.8032 39.0919 50.7427 38.3217 51.4033 37.3337C52.064 36.3457 52.4161 35.1843 52.415 33.9966C52.415 32.406 51.7817 30.8804 50.6545 29.7557C49.5273 28.6309 47.9984 27.999 46.4043 27.999ZM46.5332 37.1589C45.9079 37.1578 45.297 36.9719 44.7775 36.6246C44.258 36.2773 43.8533 35.7842 43.6145 35.2076C43.3758 34.631 43.3136 33.9967 43.4358 33.3848C43.558 32.7729 43.8593 32.2109 44.3014 31.7697C44.7436 31.3285 45.3068 31.028 45.92 30.906C46.5332 30.784 47.1689 30.8461 47.7468 31.0843C48.3247 31.3226 48.8189 31.7264 49.1669 32.2447C49.515 32.7631 49.7013 33.3727 49.7024 33.9966C49.7038 34.4123 49.6228 34.8241 49.464 35.2084C49.3053 35.5927 49.0719 35.9419 48.7773 36.2358C48.4827 36.5298 48.1328 36.7626 47.7477 36.9211C47.3625 37.0795 46.9498 37.1603 46.5332 37.1589Z" fill="#0047AB"/>
</g>
<defs>
<clipPath id="clip0_548_5421">
<rect width="107.5" height="40" fill="white"/>
</clipPath>
</defs>
</svg>
