<svg width="200" height="75" viewBox="0 0 200 75" fill="none" xmlns="http://www.w3.org/2000/svg">
<g clip-path="url(#clip0_548_5457)">
<path d="M94.9357 68.1374L94.8757 64.1488C146.112 70.1318 195.97 48.8223 195.97 31.5414C195.97 13.5924 170.836 4.61787 119.13 4.17912L113.314 4.12926C102.781 3.98966 102.371 3.98966 90.6984 4.13923L90.6484 0.150562C102.361 0.000986455 102.771 0.000986451 113.344 0.0608165L119.15 0.110675C146.472 0.330052 166.229 2.8828 179.551 7.9185C193.112 13.0539 199.997 20.9914 199.997 31.5015C199.997 41.4732 189.794 50.6371 171.276 57.4279C153.438 63.9892 121.348 74.5293 94.9357 68.1374Z" fill="white"/>
<path d="M20.3516 14.1616H25.878V22.4481C26.5278 21.5991 27.3728 20.9186 28.3416 20.4639C29.3104 20.0092 30.3746 19.7937 31.4444 19.8355C35.5517 19.8355 38.2999 22.6774 38.2999 27.5137V38.0338H32.8035V28.2616C32.8035 25.8085 31.4444 24.4524 29.3457 24.4524C27.2471 24.4524 25.878 25.8085 25.878 28.2616V38.0338H20.3516V14.1616Z" fill="white"/>
<path d="M50.1631 38.2933C44.8566 38.2933 41.0391 34.7434 41.0391 29.0396C41.0391 23.3358 44.7966 19.7759 50.1631 19.7759C55.5296 19.7759 59.1573 23.256 59.1573 28.7504C59.1529 29.2903 59.1196 29.8295 59.0573 30.3658H46.5355C46.7354 32.7191 48.1844 33.826 49.9633 33.826C50.5644 33.8646 51.163 33.7179 51.6778 33.4058C52.1926 33.0936 52.5988 32.6311 52.8414 32.0809H58.7276C57.8581 35.581 54.6602 38.2933 50.1631 38.2933ZM46.5755 27.3244H53.491C53.4913 26.8921 53.4014 26.4645 53.2269 26.0688C53.0524 25.6731 52.7971 25.318 52.4774 25.0262C52.1577 24.7344 51.7806 24.5123 51.3701 24.3741C50.9596 24.2358 50.5247 24.1844 50.0932 24.2232C49.2256 24.1937 48.3792 24.4946 47.7259 25.065C47.0726 25.6355 46.6613 26.4325 46.5755 27.2945V27.3244Z" fill="white"/>
<path d="M75.9435 19.8061H67.5889V24.3931H74.9941V28.651H67.5889V33.6368H75.9435V38.0543H62.0625V15.3887H75.9435V19.8061Z" fill="white"/>
<path d="M92.0066 28.2612C92.0066 25.8082 90.6475 24.452 88.5488 24.452C86.4502 24.452 85.0811 25.8082 85.0811 28.2612V38.0335H79.5547V20.0844H85.0811V22.4677C85.722 21.6358 86.5518 20.9678 87.5023 20.5188C88.4527 20.0697 89.4965 19.8525 90.5475 19.885C94.7248 19.885 97.543 22.7269 97.543 27.5632V38.0335H92.0466L92.0066 28.2612Z" fill="white"/>
<path d="M108.23 19.7753C109.321 19.7177 110.408 19.9461 111.383 20.4377C112.358 20.9293 113.186 21.667 113.787 22.5774V20.0346H119.323V37.9836C119.323 42.7899 116.535 46.8883 110.329 46.8883C104.963 46.8883 101.465 44.186 100.985 39.9081H106.442C106.801 41.2643 108.16 42.1318 110.069 42.1318C112.168 42.1318 113.817 41.0349 113.817 38.0035V35.4608C113.211 36.3683 112.382 37.1053 111.41 37.6013C110.437 38.0972 109.352 38.3353 108.26 38.2927C103.823 38.2927 100.266 34.683 100.266 28.9991C100.266 23.3153 103.793 19.7753 108.23 19.7753ZM109.839 24.5817C107.771 24.5817 105.902 26.1273 105.902 28.9991C105.902 31.871 107.771 33.4864 109.839 33.4864C111.908 33.4864 113.837 31.9108 113.837 29.039C113.837 26.1672 111.928 24.5817 109.839 24.5817Z" fill="white"/>
<path d="M123.328 14.1616H128.914V38.0338H123.378L123.328 14.1616Z" fill="white"/>
<path d="M132.357 15.1899C132.297 14.5296 132.438 13.8665 132.762 13.2875C133.085 12.7085 133.577 12.2406 134.172 11.9451C134.766 11.6496 135.437 11.5402 136.095 11.6313C136.753 11.7225 137.368 12.0099 137.86 12.4559C138.352 12.9019 138.697 13.4856 138.85 14.1307C139.004 14.7758 138.958 15.4521 138.72 16.071C138.482 16.6899 138.062 17.2225 137.515 17.5991C136.968 17.9757 136.32 18.1786 135.655 18.1814C135.239 18.2126 134.821 18.1589 134.427 18.0235C134.032 17.8881 133.67 17.6739 133.361 17.3939C133.052 17.1139 132.804 16.774 132.632 16.3951C132.459 16.0161 132.366 15.606 132.357 15.1899ZM132.877 20.0361H138.403V38.035H132.917L132.877 20.0361Z" fill="white"/>
<path d="M149.76 38.2933C144.933 38.2933 141.705 35.6209 141.445 32.1308H146.902C147.008 32.7693 147.355 33.343 147.871 33.7343C148.388 34.1256 149.035 34.3047 149.68 34.2348C151.099 34.2348 151.849 33.5866 151.849 32.7789C151.849 29.8772 142.015 31.9712 142.015 25.36C142.015 22.2887 144.633 19.7759 149.36 19.7759C154.087 19.7759 156.605 22.3585 156.955 25.9085H151.899C151.804 25.2973 151.475 24.7469 150.98 24.3744C150.486 24.002 149.865 23.8368 149.25 23.9141C147.951 23.9141 147.252 24.4327 147.252 25.3002C147.252 28.172 157.015 26.1378 157.115 32.8487C157.065 35.9001 154.287 38.2933 149.76 38.2933Z" fill="white"/>
<path d="M160.467 14.1616H165.994V22.4481C166.644 21.5991 167.489 20.9186 168.458 20.4639C169.426 20.0092 170.49 19.7937 171.56 19.8355C175.668 19.8355 178.416 22.6774 178.416 27.5137V38.0338H172.889V28.2616C172.889 25.8085 171.53 24.4524 169.432 24.4524C167.333 24.4524 165.964 25.8085 165.964 28.2616V38.0338H160.438L160.467 14.1616Z" fill="white"/>
<path d="M11.7016 49.8569C17.1081 49.8569 21.1855 52.8484 22.4746 57.8343H16.3986C15.9981 56.9169 15.3302 56.141 14.4819 55.6075C13.6335 55.074 12.6439 54.8075 11.6417 54.8428C8.24389 54.8428 5.91541 57.3556 5.91541 61.3543C5.91541 65.3529 8.24389 67.8757 11.6417 67.8757C12.6338 67.9185 13.6162 67.6653 14.4635 67.1484C15.3107 66.6316 15.9844 65.8746 16.3986 64.974H22.4746C21.1855 69.8801 17.1081 72.8815 11.7016 72.8815C4.996 72.9214 0.289062 68.1749 0.289062 61.3942C0.289062 54.6134 4.996 49.8569 11.7016 49.8569Z" fill="white"/>
<path d="M25.875 48.8638H31.4114V72.7958H25.875V48.8638Z" fill="white"/>
<path d="M34.9062 49.9108C34.9146 49.4946 35.0079 49.0845 35.1804 48.7056C35.353 48.3266 35.6012 47.9868 35.9099 47.7068C36.2186 47.4268 36.5812 47.2125 36.9757 47.0771C37.3701 46.9417 37.7881 46.888 38.2041 46.9193C38.5978 46.9193 38.9877 46.9967 39.3514 47.147C39.7152 47.2973 40.0457 47.5177 40.324 47.7955C40.6024 48.0733 40.8233 48.4031 40.9739 48.766C41.1246 49.1289 41.2022 49.5179 41.2022 49.9108C41.2022 50.3036 41.1246 50.6927 40.9739 51.0556C40.8233 51.4185 40.6024 51.7483 40.324 52.0261C40.0457 52.3039 39.7152 52.5242 39.3514 52.6746C38.9877 52.8249 38.5978 52.9023 38.2041 52.9023C37.7878 52.935 37.3692 52.8824 36.9741 52.7475C36.579 52.6126 36.2158 52.3985 35.9068 52.1182C35.5978 51.8379 35.3496 51.4975 35.1776 51.1178C35.0055 50.7382 34.9131 50.3274 34.9062 49.9108ZM35.4259 54.757H40.9823V72.7958H35.4259V54.757Z" fill="white"/>
<path d="M57.4028 62.9833C57.4028 60.5302 56.0437 59.1741 53.9351 59.1741C51.8265 59.1741 50.4774 60.5302 50.4774 62.9833V72.7954H44.9609V54.8464H50.4873V57.1399C51.1271 56.3068 51.9568 55.6379 52.9075 55.1887C53.8582 54.7396 54.9025 54.5231 55.9538 54.5572C60.1311 54.5572 62.9492 57.3991 62.9492 62.2354V72.7954H57.4528L57.4028 62.9833Z" fill="white"/>
<path d="M66.248 49.9101C66.1876 49.2498 66.3285 48.5868 66.6522 48.0078C66.976 47.4288 67.4674 46.9608 68.0622 46.6653C68.657 46.3698 69.3274 46.2604 69.9856 46.3516C70.6437 46.4427 71.2589 46.7301 71.7506 47.1761C72.2423 47.6221 72.5874 48.2059 72.7409 48.8509C72.8944 49.496 72.849 50.1723 72.6107 50.7912C72.3724 51.4101 71.9522 51.9427 71.4053 52.3193C70.8585 52.6959 70.2103 52.8988 69.5459 52.9016C69.1296 52.9343 68.711 52.8816 68.3159 52.7468C67.9208 52.6119 67.5576 52.3978 67.2486 52.1175C66.9396 51.8372 66.6914 51.4968 66.5193 51.1171C66.3473 50.7375 66.2549 50.3267 66.248 49.9101ZM66.7577 54.7563H72.2941V72.7951H66.7577V54.7563Z" fill="white"/>
<path d="M11.5342 17.1807H6.00781V38.0414H11.5342V17.1807Z" fill="white"/>
<path d="M52.3959 6.7124H0V11.1299H52.3959V6.7124Z" fill="white"/>
<path d="M86.3277 52.0918C84.1132 52.0898 81.9478 52.7434 80.1056 53.9698C78.2634 55.1963 76.8273 56.9404 75.9789 58.9816C75.1305 61.0227 74.908 63.2691 75.3396 65.4365C75.7711 67.6038 76.8373 69.5947 78.4033 71.1572C79.9692 72.7197 81.9645 73.7836 84.1366 74.2142C86.3087 74.6448 88.56 74.4228 90.6056 73.5763C92.6512 72.7298 94.3992 71.2968 95.6283 69.4586C96.8574 67.6205 97.5124 65.4598 97.5105 63.2501C97.5105 60.2907 96.3323 57.4526 94.2351 55.36C92.1379 53.2674 89.2936 52.0918 86.3277 52.0918ZM86.5676 69.1334C85.4042 69.1314 84.2676 68.7855 83.3011 68.1394C82.3347 67.4933 81.5818 66.5759 81.1375 65.5031C80.6933 64.4303 80.5775 63.2502 80.805 62.1118C81.0324 60.9734 81.5928 59.9278 82.4154 59.107C83.238 58.2862 84.2859 57.7271 85.4268 57.5001C86.5676 57.2732 87.7503 57.3886 88.8255 57.8319C89.9006 58.2752 90.82 59.0265 91.4676 59.9908C92.1151 60.9552 92.4618 62.0893 92.4637 63.2501C92.4664 64.0234 92.3157 64.7897 92.0203 65.5047C91.7249 66.2196 91.2907 66.8692 90.7427 67.4161C90.1946 67.9629 89.5436 68.3962 88.827 68.6909C88.1105 68.9856 87.3426 69.136 86.5676 69.1334Z" fill="white"/>
</g>
<defs>
<clipPath id="clip0_548_5457">
<rect width="200" height="74.4186" fill="white"/>
</clipPath>
</defs>
</svg>
