<svg width="225" height="596" viewBox="0 0 225 596" fill="none" xmlns="http://www.w3.org/2000/svg">
<g opacity="0.32">
<path d="M77.1123 259.636L88.9756 247.751C221.254 419.957 431.865 507.919 484.025 457.214C538.201 404.548 491.543 302.353 341.151 144.998L324.236 127.296C293.751 95.0935 292.549 93.8568 257.849 59.0642L269.741 47.2099C304.559 82.1232 305.761 83.3599 336.604 115.449L353.49 133.12C432.996 216.232 483.262 283.357 507.15 338.341C531.44 394.341 527.686 438.414 495.962 469.253C465.864 498.512 408.266 494.603 333.434 458.634C261.288 424.044 135.319 358.114 77.1123 259.636Z" fill="#0047AB"/>
<path d="M100.293 186.603C93.8007 179.913 85.4743 175.295 76.3673 173.333C67.2603 171.371 57.7819 172.154 49.1317 175.582C40.4815 179.011 33.0482 184.93 27.7726 192.592C22.497 200.254 19.6162 209.314 19.4947 218.625C19.3732 227.937 22.0165 237.081 27.0901 244.9C32.1637 252.72 39.4396 258.864 47.9969 262.554C56.5543 266.245 66.0084 267.316 75.163 265.633C84.3176 263.949 92.7611 259.586 99.4251 253.097C108.357 244.413 113.467 232.53 113.63 220.06C113.792 207.59 108.995 195.555 100.293 186.603ZM49.5588 237.33C46.1514 233.813 43.8603 229.367 42.9748 224.554C42.0893 219.741 42.6492 214.777 44.5837 210.288C46.5182 205.799 49.7406 201.987 53.844 199.334C57.9474 196.68 62.7477 195.304 67.6388 195.378C72.5299 195.453 77.2924 196.975 81.3249 199.752C85.3574 202.53 88.4791 206.439 90.2958 210.985C92.1124 215.53 92.5425 220.51 91.5318 225.294C90.5211 230.078 88.1149 234.452 84.6171 237.864C82.2906 240.141 79.5357 241.934 76.5109 243.141C73.4862 244.347 70.2514 244.943 66.9928 244.893C63.7342 244.843 60.5162 244.149 57.5241 242.851C54.532 241.553 51.825 239.677 49.5588 237.33Z" fill="#0047AB"/>
</g>
</svg>
